<svg version="1.1" viewBox="0.0 0.0 960.0 720.0" fill="none" stroke="none" stroke-linecap="square" stroke-miterlimit="10" xmlns:xlink="http://www.w3.org/1999/xlink" xmlns="http://www.w3.org/2000/svg"><clipPath id="p.0"><path d="m0 0l960.0 0l0 720.0l-960.0 0l0 -720.0z" clip-rule="nonzero"/></clipPath><g clip-path="url(#p.0)"><path fill="#000000" fill-opacity="0.0" d="m0 0l960.0 0l0 720.0l-960.0 0z" fill-rule="evenodd"/><path fill="#000000" fill-opacity="0.0" d="m51.698162 113.485565l337.92126 0l0 103.433075l-337.92126 0z" fill-rule="evenodd"/><path fill="#000000" d="m63.370037 155.76556l0 -24.8125l9.359379 0q2.46875 0 3.78125 0.234375q1.8125 0.3125 3.046875 1.171875q1.25 0.84375 2.0 2.390625q0.75 1.53125 0.75 3.390625q0 3.15625 -2.015625 5.359375q-2.015625 2.1875 -7.28125 2.1875l-6.359375 0l0 10.078125l-3.2812538 0zm3.2812538 -13.015625l6.421875 0q3.171875 0 4.5 -1.171875q1.34375 -1.1875 1.34375 -3.34375q0 -1.5625 -0.78125 -2.671875q-0.78125 -1.109375 -2.078125 -1.453125q-0.828125 -0.21875 -3.0625 -0.21875l-6.34375 0l0 8.859375zm19.412323 13.015625l0 -17.96875l2.734375 0l0 2.71875q1.0625 -1.90625 1.9375 -2.515625q0.890625 -0.609375 1.96875 -0.609375q1.53125 0 3.125 0.984375l-1.046875 2.828125q-1.125 -0.671875 -2.234375 -0.671875q-1.0 0 -1.796875 0.609375q-0.796875 0.59375 -1.140625 1.65625q-0.5 1.625 -0.5 3.5625l0 9.40625l-3.046875 0zm10.447052 -8.984375q0 -5.0 2.765625 -7.390625q2.328125 -2.0 5.65625 -2.0q3.703125 0 6.046875 2.4375q2.359375 2.421875 2.359375 6.703125q0 3.46875 -1.046875 5.453125q-1.03125 1.984375 -3.015625 3.09375q-1.984375 1.09375 -4.34375 1.09375q-3.78125 0 -6.109375 -2.421875q-2.3125 -2.421875 -2.3125 -6.96875zm3.125 0q0 3.453125 1.5 5.171875q1.515625 1.71875 3.796875 1.71875q2.265625 0 3.765625 -1.71875q1.515625 -1.734375 1.515625 -5.28125q0 -3.328125 -1.515625 -5.046875q-1.515625 -1.71875 -3.765625 -1.71875q-2.28125 0 -3.796875 1.71875q-1.5 1.703125 -1.5 5.15625zm18.00853 8.984375l0 -15.609375l-2.6875 0l0 -2.359375l2.6875 0l0 -1.921875q0 -1.796875 0.3125 -2.6875q0.453125 -1.1875 1.546875 -1.921875q1.109375 -0.734375 3.109375 -0.734375q1.28125 0 2.84375 0.3125l-0.453125 2.65625q-0.953125 -0.171875 -1.796875 -0.171875q-1.390625 0 -1.96875 0.59375q-0.5625 0.59375 -0.5625 2.21875l0 1.65625l3.5 0l0 2.359375l-3.5 0l0 15.609375l-3.03125 0zm21.206741 -5.78125l3.140625 0.390625q-0.75 2.75 -2.765625 4.28125q-2.0 1.515625 -5.140625 1.515625q-3.9375 0 -6.25 -2.421875q-2.3125 -2.4375 -2.3125 -6.8125q0 -4.546875 2.328125 -7.046875q2.34375 -2.5 6.0625 -2.5q3.609375 0 5.890625 2.453125q2.28125 2.453125 2.28125 6.90625q0 0.265625 -0.015625 0.8125l-13.390625 0q0.15625 2.953125 1.65625 4.53125q1.515625 1.578125 3.765625 1.578125q1.6875 0 2.859375 -0.875q1.1875 -0.890625 1.890625 -2.8125zm-10.015625 -4.9375l10.046875 0q-0.203125 -2.265625 -1.15625 -3.390625q-1.453125 -1.765625 -3.765625 -1.765625q-2.109375 0 -3.546875 1.40625q-1.421875 1.40625 -1.578125 3.75zm15.75853 5.359375l3.015625 -0.484375q0.25 1.8125 1.40625 2.78125q1.171875 0.96875 3.25 0.96875q2.09375 0 3.109375 -0.859375q1.015625 -0.859375 1.015625 -2.0q0 -1.03125 -0.890625 -1.625q-0.625 -0.40625 -3.125 -1.03125q-3.34375 -0.859375 -4.640625 -1.46875q-1.296875 -0.625 -1.96875 -1.703125q-0.65625 -1.09375 -0.65625 -2.421875q0 -1.203125 0.546875 -2.21875q0.546875 -1.03125 1.5 -1.703125q0.703125 -0.53125 1.921875 -0.890625q1.234375 -0.359375 2.640625 -0.359375q2.125 0 3.71875 0.609375q1.59375 0.609375 2.359375 1.65625q0.765625 1.03125 1.046875 2.78125l-2.96875 0.40625q-0.203125 -1.390625 -1.1875 -2.171875q-0.96875 -0.78125 -2.75 -0.78125q-2.09375 0 -3.0 0.703125q-0.890625 0.6875 -0.890625 1.625q0 0.578125 0.375 1.0625q0.375 0.484375 1.171875 0.8125q0.453125 0.171875 2.6875 0.78125q3.234375 0.859375 4.5 1.40625q1.28125 0.546875 2.0 1.59375q0.734375 1.046875 0.734375 2.609375q0 1.53125 -0.890625 2.875q-0.875 1.34375 -2.5625 2.078125q-1.671875 0.734375 -3.78125 0.734375q-3.5 0 -5.34375 -1.453125q-1.828125 -1.453125 -2.34375 -4.3125zm17.328125 0l3.015625 -0.484375q0.25 1.8125 1.40625 2.78125q1.171875 0.96875 3.25 0.96875q2.09375 0 3.109375 -0.859375q1.015625 -0.859375 1.015625 -2.0q0 -1.03125 -0.890625 -1.625q-0.625 -0.40625 -3.125 -1.03125q-3.34375 -0.859375 -4.640625 -1.46875q-1.296875 -0.625 -1.96875 -1.703125q-0.65625 -1.09375 -0.65625 -2.421875q0 -1.203125 0.546875 -2.21875q0.546875 -1.03125 1.5 -1.703125q0.703125 -0.53125 1.921875 -0.890625q1.234375 -0.359375 2.640625 -0.359375q2.125 0 3.71875 0.609375q1.59375 0.609375 2.359375 1.65625q0.765625 1.03125 1.046875 2.78125l-2.96875 0.40625q-0.203125 -1.390625 -1.1875 -2.171875q-0.96875 -0.78125 -2.75 -0.78125q-2.09375 0 -3.0 0.703125q-0.890625 0.6875 -0.890625 1.625q0 0.578125 0.375 1.0625q0.375 0.484375 1.171875 0.8125q0.453125 0.171875 2.6875 0.78125q3.234375 0.859375 4.5 1.40625q1.28125 0.546875 2.0 1.59375q0.734375 1.046875 0.734375 2.609375q0 1.53125 -0.890625 2.875q-0.875 1.34375 -2.5625 2.078125q-1.671875 0.734375 -3.78125 0.734375q-3.5 0 -5.34375 -1.453125q-1.828125 -1.453125 -2.34375 -4.3125zm17.421875 -3.625q0 -5.0 2.765625 -7.390625q2.328125 -2.0 5.65625 -2.0q3.703125 0 6.046875 2.4375q2.359375 2.421875 2.359375 6.703125q0 3.46875 -1.046875 5.453125q-1.03125 1.984375 -3.015625 3.09375q-1.984375 1.09375 -4.34375 1.09375q-3.78125 0 -6.109375 -2.421875q-2.3125 -2.421875 -2.3125 -6.96875zm3.125 0q0 3.453125 1.5 5.171875q1.515625 1.71875 3.796875 1.71875q2.265625 0 3.765625 -1.71875q1.515625 -1.734375 1.515625 -5.28125q0 -3.328125 -1.515625 -5.046875q-1.515625 -1.71875 -3.765625 -1.71875q-2.28125 0 -3.796875 1.71875q-1.5 1.703125 -1.5 5.15625zm17.242905 8.984375l0 -17.96875l2.734375 0l0 2.71875q1.0625 -1.90625 1.9375 -2.515625q0.890625 -0.609375 1.96875 -0.609375q1.53125 0 3.125 0.984375l-1.046875 2.828125q-1.125 -0.671875 -2.234375 -0.671875q-1.0 0 -1.796875 0.609375q-0.796875 0.59375 -1.140625 1.65625q-0.5 1.625 -0.5 3.5625l0 9.40625l-3.046875 0zm21.450668 0l0 -24.8125l9.3125 0q2.84375 0 4.5625 0.765625q1.71875 0.75 2.6875 2.3125q0.96875 1.5625 0.96875 3.265625q0 1.59375 -0.859375 3.0q-0.859375 1.40625 -2.609375 2.265625q2.25 0.65625 3.453125 2.25q1.21875 1.59375 1.21875 3.765625q0 1.734375 -0.734375 3.234375q-0.734375 1.5 -1.828125 2.3125q-1.078125 0.8125 -2.71875 1.234375q-1.625 0.40625 -3.984375 0.40625l-9.46875 0zm3.296875 -14.390625l5.359375 0q2.1875 0 3.125 -0.28125q1.25 -0.375 1.890625 -1.234375q0.640625 -0.859375 0.640625 -2.171875q0 -1.234375 -0.59375 -2.171875q-0.59375 -0.9375 -1.703125 -1.28125q-1.09375 -0.34375 -3.765625 -0.34375l-4.953125 0l0 7.484375zm0 11.46875l6.171875 0q1.59375 0 2.234375 -0.125q1.125 -0.203125 1.890625 -0.671875q0.765625 -0.484375 1.25 -1.375q0.5 -0.90625 0.5 -2.09375q0 -1.390625 -0.71875 -2.40625q-0.703125 -1.03125 -1.96875 -1.4375q-1.265625 -0.421875 -3.625 -0.421875l-5.734375 0l0 8.53125zm31.349823 2.921875l0 -2.640625q-2.09375 3.046875 -5.703125 3.046875q-1.59375 0 -2.96875 -0.609375q-1.375 -0.609375 -2.046875 -1.53125q-0.671875 -0.921875 -0.9375 -2.265625q-0.1875 -0.890625 -0.1875 -2.84375l0 -11.125l3.046875 0l0 9.96875q0 2.375 0.1875 3.21875q0.28125 1.1875 1.203125 1.875q0.9375 0.6875 2.3125 0.6875q1.375 0 2.578125 -0.703125q1.203125 -0.703125 1.6875 -1.90625q0.5 -1.21875 0.5 -3.515625l0 -9.625l3.046875 0l0 17.96875l-2.71875 0zm7.4928894 0l0 -17.96875l2.75 0l0 2.546875q1.96875 -2.953125 5.71875 -2.953125q1.625 0 2.984375 0.59375q1.359375 0.578125 2.03125 1.53125q0.6875 0.9375 0.953125 2.234375q0.171875 0.84375 0.171875 2.96875l0 11.046875l-3.046875 0l0 -10.9375q0 -1.859375 -0.359375 -2.78125q-0.359375 -0.921875 -1.265625 -1.46875q-0.890625 -0.546875 -2.109375 -0.546875q-1.953125 0 -3.375 1.234375q-1.40625 1.234375 -1.40625 4.6875l0 9.8125l-3.046875 0zm31.008545 -6.578125l2.984375 0.390625q-0.484375 3.09375 -2.515625 4.84375q-2.015625 1.75 -4.953125 1.75q-3.6875 0 -5.9375 -2.40625q-2.234375 -2.421875 -2.234375 -6.921875q0 -2.90625 0.953125 -5.078125q0.96875 -2.1875 2.9375 -3.28125q1.96875 -1.09375 4.296875 -1.09375q2.921875 0 4.78125 1.484375q1.859375 1.46875 2.390625 4.203125l-2.96875 0.453125q-0.421875 -1.8125 -1.5 -2.71875q-1.0625 -0.921875 -2.59375 -0.921875q-2.296875 0 -3.734375 1.65625q-1.4375 1.640625 -1.4375 5.21875q0 3.625 1.390625 5.265625q1.390625 1.640625 3.625 1.640625q1.78125 0 2.984375 -1.09375q1.203125 -1.109375 1.53125 -3.390625zm5.59375 6.578125l0 -24.8125l3.046875 0l0 8.90625q2.140625 -2.46875 5.3905945 -2.46875q1.984375 0 3.453125 0.796875q1.484375 0.78125 2.109375 2.171875q0.640625 1.375 0.640625 4.015625l0 11.390625l-3.046875 0l0 -11.390625q0 -2.28125 -1.0 -3.3125q-0.984375 -1.046875 -2.796875 -1.046875q-1.3437195 0 -2.5468445 0.703125q-1.1875 0.703125 -1.703125 1.90625q-0.5 1.1875 -0.5 3.3125l0 9.828125l-3.046875 0zm19.08664 -21.53125l0 -3.53125l3.265625 0l0 2.796875q0 2.265625 -0.515625 3.265625q-0.734375 1.375 -2.265625 2.0625l-0.75 -1.203125q0.90625 -0.375 1.359375 -1.171875q0.453125 -0.8125 0.5 -2.21875l-1.59375 0zm6.0419617 16.171875l3.015625 -0.484375q0.25 1.8125 1.40625 2.78125q1.171875 0.96875 3.25 0.96875q2.09375 0 3.109375 -0.859375q1.015625 -0.859375 1.015625 -2.0q0 -1.03125 -0.890625 -1.625q-0.625 -0.40625 -3.125 -1.03125q-3.34375 -0.859375 -4.640625 -1.46875q-1.296875 -0.625 -1.96875 -1.703125q-0.65625 -1.09375 -0.65625 -2.421875q0 -1.203125 0.546875 -2.21875q0.546875 -1.03125 1.5 -1.703125q0.703125 -0.53125 1.921875 -0.890625q1.234375 -0.359375 2.640625 -0.359375q2.125 0 3.71875 0.609375q1.59375 0.609375 2.359375 1.65625q0.765625 1.03125 1.046875 2.78125l-2.96875 0.40625q-0.203125 -1.390625 -1.1875 -2.171875q-0.96875 -0.78125 -2.75 -0.78125q-2.09375 0 -3.0 0.703125q-0.890625 0.6875 -0.890625 1.625q0 0.578125 0.375 1.0625q0.375 0.484375 1.171875 0.8125q0.453125 0.171875 2.6875 0.78125q3.234375 0.859375 4.5 1.40625q1.28125 0.546875 2.0 1.59375q0.734375 1.046875 0.734375 2.609375q0 1.53125 -0.890625 2.875q-0.875 1.34375 -2.5625 2.078125q-1.671875 0.734375 -3.78125 0.734375q-3.5 0 -5.34375 -1.453125q-1.828125 -1.453125 -2.34375 -4.3125z" fill-rule="nonzero"/><path fill="#000000" d="m63.416912 197.36555l0 -24.8125l11.000004 0q3.328125 0 5.046875 0.671875q1.734375 0.671875 2.765625 2.359375q1.03125 1.6875 1.03125 3.75q0 2.625 -1.71875 4.4375q-1.703125 1.8125 -5.28125 2.3125q1.3125 0.625 1.984375 1.234375q1.4375 1.3125 2.71875 3.296875l4.328125 6.75l-4.140625 0l-3.28125 -5.15625q-1.4375 -2.234375 -2.375 -3.421875q-0.921875 -1.1875 -1.65625 -1.65625q-0.734375 -0.484375 -1.5 -0.65625q-0.5625 -0.125 -1.828125 -0.125l-3.8125 0l0 11.015625l-3.2812538 0zm3.2812538 -13.859375l7.0625 0q2.25 0 3.515625 -0.46875q1.28125 -0.46875 1.9375 -1.484375q0.65625 -1.03125 0.65625 -2.21875q0 -1.765625 -1.28125 -2.890625q-1.265625 -1.140625 -4.03125 -1.140625l-7.859375 0l0 8.203125zm33.621384 8.078125l3.140625 0.390625q-0.75 2.75 -2.765625 4.28125q-2.0 1.515625 -5.140625 1.515625q-3.9375 0 -6.25 -2.421875q-2.3125 -2.4375 -2.3125 -6.8125q0 -4.546875 2.328125 -7.046875q2.34375 -2.5 6.0625 -2.5q3.609375 0 5.890625 2.453125q2.28125 2.453125 2.28125 6.90625q0 0.265625 -0.015625 0.8125l-13.390625 0q0.15625 2.953125 1.65625 4.53125q1.515625 1.578125 3.765625 1.578125q1.6875 0 2.859375 -0.875q1.1875 -0.890625 1.890625 -2.8125zm-10.015625 -4.9375l10.046875 0q-0.203125 -2.265625 -1.15625 -3.390625q-1.453125 -1.765625 -3.765625 -1.765625q-2.109375 0 -3.546875 1.40625q-1.421875 1.40625 -1.578125 3.75zm16.97728 17.609375l0 -24.859375l2.78125 0l0 2.328125q0.984375 -1.359375 2.21875 -2.046875q1.234375 -0.6875 2.984375 -0.6875q2.3125 0 4.0625 1.1875q1.765625 1.171875 2.65625 3.34375q0.90625 2.15625 0.90625 4.71875q0 2.765625 -1.0 4.96875q-0.984375 2.203125 -2.875 3.390625q-1.875 1.171875 -3.96875 1.171875q-1.515625 0 -2.734375 -0.640625q-1.203125 -0.640625 -1.984375 -1.625l0 8.75l-3.046875 0zm2.765625 -15.78125q0 3.46875 1.40625 5.140625q1.40625 1.65625 3.390625 1.65625q2.03125 0 3.46875 -1.71875q1.453125 -1.71875 1.453125 -5.328125q0 -3.4375 -1.40625 -5.140625q-1.40625 -1.703125 -3.375 -1.703125q-1.953125 0 -3.453125 1.8125q-1.484375 1.8125 -1.484375 5.28125zm15.38353 -0.09375q0 -5.0 2.765625 -7.390625q2.328125 -2.0 5.65625 -2.0q3.703125 0 6.046875 2.4375q2.359375 2.421875 2.359375 6.703125q0 3.46875 -1.046875 5.453125q-1.03125 1.984375 -3.015625 3.09375q-1.984375 1.09375 -4.34375 1.09375q-3.78125 0 -6.109375 -2.421875q-2.3125 -2.421875 -2.3125 -6.96875zm3.125 0q0 3.453125 1.5 5.171875q1.515625 1.71875 3.796875 1.71875q2.265625 0 3.765625 -1.71875q1.515625 -1.734375 1.515625 -5.28125q0 -3.328125 -1.515625 -5.046875q-1.515625 -1.71875 -3.765625 -1.71875q-2.28125 0 -3.796875 1.71875q-1.5 1.703125 -1.5 5.15625zm16.055405 3.625l3.015625 -0.484375q0.25 1.8125 1.40625 2.78125q1.171875 0.96875 3.25 0.96875q2.09375 0 3.109375 -0.859375q1.015625 -0.859375 1.015625 -2.0q0 -1.03125 -0.890625 -1.625q-0.625 -0.40625 -3.125 -1.03125q-3.34375 -0.859375 -4.640625 -1.46875q-1.296875 -0.625 -1.96875 -1.703125q-0.65625 -1.09375 -0.65625 -2.421875q0 -1.203125 0.546875 -2.21875q0.546875 -1.03125 1.5 -1.703125q0.703125 -0.53125 1.921875 -0.890625q1.234375 -0.359375 2.640625 -0.359375q2.125 0 3.71875 0.609375q1.59375 0.609375 2.359375 1.65625q0.765625 1.03125 1.046875 2.78125l-2.96875 0.40625q-0.203125 -1.390625 -1.1875 -2.171875q-0.96875 -0.78125 -2.75 -0.78125q-2.09375 0 -3.0 0.703125q-0.890625 0.6875 -0.890625 1.625q0 0.578125 0.375 1.0625q0.375 0.484375 1.171875 0.8125q0.453125 0.171875 2.6875 0.78125q3.234375 0.859375 4.5 1.40625q1.28125 0.546875 2.0 1.59375q0.734375 1.046875 0.734375 2.609375q0 1.53125 -0.890625 2.875q-0.875 1.34375 -2.5625 2.078125q-1.671875 0.734375 -3.78125 0.734375q-3.5 0 -5.34375 -1.453125q-1.828125 -1.453125 -2.34375 -4.3125zm18.5625 -15.953125l0 -3.5l3.046875 0l0 3.5l-3.046875 0zm0 21.3125l0 -17.96875l3.046875 0l0 17.96875l-3.046875 0zm14.340134 -2.71875l0.4375 2.6875q-1.28125 0.265625 -2.296875 0.265625q-1.65625 0 -2.578125 -0.515625q-0.90625 -0.53125 -1.28125 -1.375q-0.375 -0.859375 -0.375 -3.609375l0 -10.34375l-2.234375 0l0 -2.359375l2.234375 0l0 -4.453125l3.03125 -1.828125l0 6.28125l3.0625 0l0 2.359375l-3.0625 0l0 10.515625q0 1.296875 0.15625 1.671875q0.15625 0.375 0.515625 0.59375q0.375 0.21875 1.046875 0.21875q0.515625 0 1.34375 -0.109375zm1.8473663 -6.265625q0 -5.0 2.765625 -7.390625q2.328125 -2.0 5.65625 -2.0q3.703125 0 6.046875 2.4375q2.359375 2.421875 2.359375 6.703125q0 3.46875 -1.046875 5.453125q-1.03125 1.984375 -3.015625 3.09375q-1.984375 1.09375 -4.34375 1.09375q-3.78125 0 -6.109375 -2.421875q-2.3125 -2.421875 -2.3125 -6.96875zm3.125 0q0 3.453125 1.5 5.171875q1.515625 1.71875 3.796875 1.71875q2.265625 0 3.765625 -1.71875q1.515625 -1.734375 1.515625 -5.28125q0 -3.328125 -1.515625 -5.046875q-1.515625 -1.71875 -3.765625 -1.71875q-2.28125 0 -3.796875 1.71875q-1.5 1.703125 -1.5 5.15625zm17.242905 8.984375l0 -17.96875l2.734375 0l0 2.71875q1.0625 -1.90625 1.9375 -2.515625q0.890625 -0.609375 1.96875 -0.609375q1.53125 0 3.125 0.984375l-1.046875 2.828125q-1.125 -0.671875 -2.234375 -0.671875q-1.0 0 -1.796875 0.609375q-0.796875 0.59375 -1.140625 1.65625q-0.5 1.625 -0.5 3.5625l0 9.40625l-3.046875 0zm11.447052 6.921875l-0.34375 -2.859375q1.0 0.265625 1.734375 0.265625q1.015625 0 1.625 -0.34375q0.609375 -0.328125 1.0 -0.9375q0.296875 -0.453125 0.9375 -2.265625q0.078125 -0.25 0.265625 -0.75l-6.8125 -18.0l3.28125 0l3.734375 10.40625q0.734375 1.984375 1.3125 4.15625q0.515625 -2.09375 1.25 -4.09375l3.84375 -10.46875l3.046875 0l-6.84375 18.265625q-1.09375 2.96875 -1.703125 4.078125q-0.8125 1.515625 -1.875 2.21875q-1.046875 0.703125 -2.5 0.703125q-0.875 0 -1.953125 -0.375z" fill-rule="nonzero"/><path fill="#000000" fill-opacity="0.0" d="m58.002625 375.76117l311.46457 0l0 103.433044l-311.46457 0z" fill-rule="evenodd"/><path fill="#000000" d="m75.987 418.04117l0 -21.875l-8.171875 0l0 -2.9375l19.65625 0l0 2.9375l-8.203125 0l0 21.875l-3.28125 0zm14.466293 0l0 -24.8125l3.046875 0l0 8.90625q2.140625 -2.46875 5.390625 -2.46875q1.984375 0 3.453125 0.796875q1.484375 0.78125 2.109375 2.171875q0.640625 1.375 0.640625 4.015625l0 11.390625l-3.046875 0l0 -11.390625q0 -2.28125 -1.0 -3.3125q-0.984375 -1.046875 -2.796875 -1.046875q-1.34375 0 -2.546875 0.703125q-1.1875 0.703125 -1.703125 1.90625q-0.5 1.1875 -0.5 3.3125l0 9.828125l-3.046875 0zm18.149155 -8.984375q0 -5.0 2.765625 -7.390625q2.328125 -2.0 5.65625 -2.0q3.703125 0 6.046875 2.4375q2.359375 2.421875 2.359375 6.703125q0 3.46875 -1.046875 5.453125q-1.03125 1.984375 -3.015625 3.09375q-1.984375 1.09375 -4.34375 1.09375q-3.78125 0 -6.109375 -2.421875q-2.3125 -2.421875 -2.3125 -6.96875zm3.125 0q0 3.453125 1.5 5.171875q1.515625 1.71875 3.796875 1.71875q2.265625 0 3.765625 -1.71875q1.515625 -1.734375 1.515625 -5.28125q0 -3.328125 -1.515625 -5.046875q-1.515625 -1.71875 -3.765625 -1.71875q-2.28125 0 -3.796875 1.71875q-1.5 1.703125 -1.5 5.15625zm17.274155 8.984375l0 -17.96875l2.734375 0l0 2.515625q0.84375 -1.3125 2.25 -2.109375q1.40625 -0.8125 3.1875 -0.8125q2.0 0 3.28125 0.828125q1.28125 0.828125 1.796875 2.3125q2.140625 -3.140625 5.546875 -3.140625q2.6875 0 4.125 1.484375q1.4375 1.46875 1.4375 4.546875l0 12.34375l-3.03125 0l0 -11.328125q0 -1.8125 -0.296875 -2.609375q-0.296875 -0.8125 -1.078125 -1.296875q-0.78125 -0.5 -1.828125 -0.5q-1.890625 0 -3.140625 1.265625q-1.25 1.25 -1.25 4.03125l0 10.4375l-3.046875 0l0 -11.671875q0 -2.03125 -0.75 -3.046875q-0.75 -1.015625 -2.4375 -1.015625q-1.28125 0 -2.375 0.671875q-1.09375 0.671875 -1.59375 1.984375q-0.484375 1.296875 -0.484375 3.75l0 9.328125l-3.046875 0zm40.603302 -2.21875q-1.703125 1.4375 -3.265625 2.03125q-1.5625 0.59375 -3.359375 0.59375q-2.953125 0 -4.546875 -1.4375q-1.59375 -1.453125 -1.59375 -3.703125q0 -1.328125 0.59375 -2.40625q0.609375 -1.09375 1.578125 -1.75q0.984375 -0.671875 2.203125 -1.015625q0.890625 -0.234375 2.703125 -0.453125q3.6875 -0.4375 5.421875 -1.046875q0.03125 -0.625 0.03125 -0.796875q0 -1.859375 -0.875 -2.625q-1.15625 -1.03125 -3.46875 -1.03125q-2.140625 0 -3.171875 0.765625q-1.015625 0.75 -1.515625 2.65625l-2.96875 -0.40625q0.40625 -1.90625 1.328125 -3.078125q0.9375 -1.1875 2.6875 -1.8125q1.765625 -0.640625 4.078125 -0.640625q2.3125 0 3.75 0.546875q1.4375 0.53125 2.109375 1.359375q0.6875 0.8125 0.953125 2.0625q0.15625 0.78125 0.15625 2.8125l0 4.0625q0 4.25 0.1875 5.375q0.203125 1.125 0.765625 2.15625l-3.171875 0q-0.484375 -0.953125 -0.609375 -2.21875zm-0.265625 -6.796875q-1.65625 0.671875 -4.96875 1.140625q-1.875 0.28125 -2.65625 0.625q-0.78125 0.328125 -1.203125 0.984375q-0.421875 0.640625 -0.421875 1.4375q0 1.21875 0.921875 2.03125q0.921875 0.8125 2.703125 0.8125q1.75 0 3.125 -0.765625q1.375 -0.765625 2.015625 -2.109375q0.484375 -1.03125 0.484375 -3.046875l0 -1.109375zm6.5866547 3.65625l3.015625 -0.484375q0.25 1.8125 1.40625 2.78125q1.171875 0.96875 3.25 0.96875q2.09375 0 3.109375 -0.859375q1.015625 -0.859375 1.015625 -2.0q0 -1.03125 -0.890625 -1.625q-0.625 -0.40625 -3.125 -1.03125q-3.34375 -0.859375 -4.640625 -1.46875q-1.296875 -0.625 -1.96875 -1.703125q-0.65625 -1.09375 -0.65625 -2.421875q0 -1.203125 0.546875 -2.21875q0.546875 -1.03125 1.5 -1.703125q0.703125 -0.53125 1.921875 -0.890625q1.234375 -0.359375 2.640625 -0.359375q2.125 0 3.71875 0.609375q1.59375 0.609375 2.359375 1.65625q0.765625 1.03125 1.046875 2.78125l-2.96875 0.40625q-0.203125 -1.390625 -1.1875 -2.171875q-0.96875 -0.78125 -2.75 -0.78125q-2.09375 0 -3.0 0.703125q-0.890625 0.6875 -0.890625 1.625q0 0.578125 0.375 1.0625q0.375 0.484375 1.171875 0.8125q0.453125 0.171875 2.6875 0.78125q3.234375 0.859375 4.5 1.40625q1.28125 0.546875 2.0 1.59375q0.734375 1.046875 0.734375 2.609375q0 1.53125 -0.890625 2.875q-0.875 1.34375 -2.5625 2.078125q-1.671875 0.734375 -3.78125 0.734375q-3.5 0 -5.34375 -1.453125q-1.828125 -1.453125 -2.34375 -4.3125zm28.472366 5.359375l0 -24.8125l4.9375 0l5.875 17.5625q0.8125 2.46875 1.171875 3.671875q0.4375 -1.34375 1.328125 -3.96875l5.9375 -17.265625l4.421875 0l0 24.8125l-3.171875 0l0 -20.765625l-7.203125 20.765625l-2.96875 0l-7.171875 -21.125l0 21.125l-3.15625 0zm40.306427 -6.578125l2.984375 0.390625q-0.484375 3.09375 -2.515625 4.84375q-2.015625 1.75 -4.953125 1.75q-3.6875 0 -5.9375 -2.40625q-2.234375 -2.421875 -2.234375 -6.921875q0 -2.90625 0.953125 -5.078125q0.96875 -2.1875 2.9375 -3.28125q1.96875 -1.09375 4.296875 -1.09375q2.921875 0 4.78125 1.484375q1.859375 1.46875 2.390625 4.203125l-2.96875 0.453125q-0.421875 -1.8125 -1.5 -2.71875q-1.0625 -0.921875 -2.59375 -0.921875q-2.296875 0 -3.734375 1.65625q-1.4375 1.640625 -1.4375 5.21875q0 3.625 1.390625 5.265625q1.390625 1.640625 3.625 1.640625q1.78125 0 2.984375 -1.09375q1.203125 -1.109375 1.53125 -3.390625zm13.07814 6.578125l-9.60939 -24.8125l3.546875 0l6.4531403 18.03125q0.78125 2.15625 1.296875 4.0625q0.578125 -2.03125 1.34375 -4.0625l6.703125 -18.03125l3.34375 0l-9.71875 24.8125l-3.359375 0zm26.030792 -5.78125l3.140625 0.390625q-0.75 2.75 -2.765625 4.28125q-2.0 1.515625 -5.140625 1.515625q-3.9375 0 -6.25 -2.421875q-2.3125 -2.4375 -2.3125 -6.8125q0 -4.546875 2.328125 -7.046875q2.34375 -2.5 6.0625 -2.5q3.609375 0 5.890625 2.453125q2.28125 2.453125 2.28125 6.90625q0 0.265625 -0.015625 0.8125l-13.390625 0q0.15625 2.953125 1.65625 4.53125q1.515625 1.578125 3.765625 1.578125q1.6875 0 2.859375 -0.875q1.1875 -0.890625 1.890625 -2.8125zm-10.015625 -4.9375l10.046875 0q-0.203125 -2.265625 -1.15625 -3.390625q-1.453125 -1.765625 -3.765625 -1.765625q-2.109375 0 -3.546875 1.40625q-1.421875 1.40625 -1.578125 3.75zm16.852295 17.640625l-0.34375 -2.859375q1.0 0.265625 1.734375 0.265625q1.015625 0 1.625 -0.34375q0.609375 -0.328125 1.0 -0.9375q0.296875 -0.453125 0.9375 -2.265625q0.078125 -0.25 0.265625 -0.75l-6.8125 -18.0l3.28125 0l3.734375 10.40625q0.734375 1.984375 1.3125 4.15625q0.515625 -2.09375 1.25 -4.09375l3.84375 -10.46875l3.046875 0l-6.84375 18.265625q-1.09375 2.96875 -1.703125 4.078125q-0.8125 1.515625 -1.875 2.21875q-1.046875 0.703125 -2.5 0.703125q-0.875 0 -1.953125 -0.375zm17.265625 -28.453125l0 -3.53125l3.265625 0l0 2.796875q0 2.265625 -0.515625 3.265625q-0.734375 1.375 -2.265625 2.0625l-0.75 -1.203125q0.90625 -0.375 1.359375 -1.171875q0.453125 -0.8125 0.5 -2.21875l-1.59375 0zm6.0419617 16.171875l3.0155945 -0.484375q0.25 1.8125 1.40625 2.78125q1.171875 0.96875 3.25 0.96875q2.09375 0 3.109375 -0.859375q1.015625 -0.859375 1.015625 -2.0q0 -1.03125 -0.890625 -1.625q-0.625 -0.40625 -3.125 -1.03125q-3.34375 -0.859375 -4.640625 -1.46875q-1.296875 -0.625 -1.96875 -1.703125q-0.65625 -1.09375 -0.65625 -2.421875q0 -1.203125 0.546875 -2.21875q0.546875 -1.03125 1.5 -1.703125q0.703125 -0.53125 1.921875 -0.890625q1.234375 -0.359375 2.640625 -0.359375q2.125 0 3.71875 0.609375q1.59375 0.609375 2.359375 1.65625q0.765625 1.03125 1.046875 2.78125l-2.96875 0.40625q-0.203125 -1.390625 -1.1875 -2.171875q-0.96875 -0.78125 -2.75 -0.78125q-2.09375 0 -3.0 0.703125q-0.890625 0.6875 -0.890625 1.625q0 0.578125 0.375 1.0625q0.375 0.484375 1.171875 0.8125q0.453125 0.171875 2.6875 0.78125q3.234375 0.859375 4.5 1.40625q1.28125 0.546875 2.0 1.59375q0.734375 1.046875 0.734375 2.609375q0 1.53125 -0.890625 2.875q-0.875 1.34375 -2.5625 2.078125q-1.671875 0.734375 -3.78125 0.734375q-3.5 0 -5.34375 -1.453125q-1.828125 -1.453125 -2.3437195 -4.3125z" fill-rule="nonzero"/><path fill="#000000" d="m69.721375 459.64114l0 -24.8125l11.0 0q3.328125 0 5.046875 0.671875q1.734375 0.671875 2.765625 2.359375q1.03125 1.6875 1.03125 3.75q0 2.625 -1.71875 4.4375q-1.703125 1.8125 -5.28125 2.3125q1.3125 0.625 1.984375 1.234375q1.4375 1.3125 2.71875 3.296875l4.328125 6.75l-4.140625 0l-3.28125 -5.15625q-1.4375 -2.234375 -2.375 -3.421875q-0.921875 -1.1875 -1.65625 -1.65625q-0.734375 -0.484375 -1.5 -0.65625q-0.5625 -0.125 -1.828125 -0.125l-3.8125 0l0 11.015625l-3.28125 0zm3.28125 -13.859375l7.0625 0q2.25 0 3.515625 -0.46875q1.28125 -0.46875 1.9375 -1.484375q0.65625 -1.03125 0.65625 -2.21875q0 -1.765625 -1.28125 -2.890625q-1.265625 -1.140625 -4.03125 -1.140625l-7.859375 0l0 8.203125zm33.621384 8.078125l3.140625 0.390625q-0.75 2.75 -2.765625 4.28125q-2.0 1.515625 -5.140625 1.515625q-3.9375 0 -6.25 -2.421875q-2.3125 -2.4375 -2.3125 -6.8125q0 -4.546875 2.328125 -7.046875q2.34375 -2.5 6.0625 -2.5q3.609375 0 5.890625 2.453125q2.28125 2.453125 2.28125 6.90625q0 0.265625 -0.015625 0.8125l-13.390625 0q0.15625 2.953125 1.65625 4.53125q1.515625 1.578125 3.765625 1.578125q1.6875 0 2.859375 -0.875q1.1875 -0.890625 1.890625 -2.8125zm-10.015625 -4.9375l10.046875 0q-0.203125 -2.265625 -1.15625 -3.390625q-1.453125 -1.765625 -3.765625 -1.765625q-2.109375 0 -3.546875 1.40625q-1.421875 1.40625 -1.578125 3.75zm16.97728 17.609375l0 -24.859375l2.78125 0l0 2.328125q0.984375 -1.359375 2.21875 -2.046875q1.234375 -0.6875 2.984375 -0.6875q2.3125 0 4.0625 1.1875q1.765625 1.171875 2.65625 3.34375q0.90625 2.15625 0.90625 4.71875q0 2.765625 -1.0 4.96875q-0.984375 2.203125 -2.875 3.390625q-1.875 1.171875 -3.96875 1.171875q-1.515625 0 -2.734375 -0.640625q-1.203125 -0.640625 -1.984375 -1.625l0 8.75l-3.046875 0zm2.765625 -15.78125q0 3.46875 1.40625 5.140625q1.40625 1.65625 3.390625 1.65625q2.03125 0 3.46875 -1.71875q1.453125 -1.71875 1.453125 -5.328125q0 -3.4375 -1.40625 -5.140625q-1.40625 -1.703125 -3.375 -1.703125q-1.953125 0 -3.453125 1.8125q-1.484375 1.8125 -1.484375 5.28125zm15.38353 -0.09375q0 -5.0 2.765625 -7.390625q2.328125 -2.0 5.65625 -2.0q3.703125 0 6.046875 2.4375q2.359375 2.421875 2.359375 6.703125q0 3.46875 -1.046875 5.453125q-1.03125 1.984375 -3.015625 3.09375q-1.984375 1.09375 -4.34375 1.09375q-3.78125 0 -6.109375 -2.421875q-2.3125 -2.421875 -2.3125 -6.96875zm3.125 0q0 3.453125 1.5 5.171875q1.515625 1.71875 3.796875 1.71875q2.265625 0 3.765625 -1.71875q1.515625 -1.734375 1.515625 -5.28125q0 -3.328125 -1.515625 -5.046875q-1.515625 -1.71875 -3.765625 -1.71875q-2.28125 0 -3.796875 1.71875q-1.5 1.703125 -1.5 5.15625zm16.055405 3.625l3.015625 -0.484375q0.25 1.8125 1.40625 2.78125q1.171875 0.96875 3.25 0.96875q2.09375 0 3.109375 -0.859375q1.015625 -0.859375 1.015625 -2.0q0 -1.03125 -0.890625 -1.625q-0.625 -0.40625 -3.125 -1.03125q-3.34375 -0.859375 -4.640625 -1.46875q-1.296875 -0.625 -1.96875 -1.703125q-0.65625 -1.09375 -0.65625 -2.421875q0 -1.203125 0.546875 -2.21875q0.546875 -1.03125 1.5 -1.703125q0.703125 -0.53125 1.921875 -0.890625q1.234375 -0.359375 2.640625 -0.359375q2.125 0 3.71875 0.609375q1.59375 0.609375 2.359375 1.65625q0.765625 1.03125 1.046875 2.78125l-2.96875 0.40625q-0.203125 -1.390625 -1.1875 -2.171875q-0.96875 -0.78125 -2.75 -0.78125q-2.09375 0 -3.0 0.703125q-0.890625 0.6875 -0.890625 1.625q0 0.578125 0.375 1.0625q0.375 0.484375 1.171875 0.8125q0.453125 0.171875 2.6875 0.78125q3.234375 0.859375 4.5 1.40625q1.28125 0.546875 2.0 1.59375q0.734375 1.046875 0.734375 2.609375q0 1.53125 -0.890625 2.875q-0.875 1.34375 -2.5625 2.078125q-1.671875 0.734375 -3.78125 0.734375q-3.5 0 -5.34375 -1.453125q-1.828125 -1.453125 -2.34375 -4.3125zm18.5625 -15.953125l0 -3.5l3.046875 0l0 3.5l-3.046875 0zm0 21.3125l0 -17.96875l3.046875 0l0 17.96875l-3.046875 0zm14.340134 -2.71875l0.4375 2.6875q-1.28125 0.265625 -2.296875 0.265625q-1.65625 0 -2.578125 -0.515625q-0.90625 -0.53125 -1.28125 -1.375q-0.375 -0.859375 -0.375 -3.609375l0 -10.34375l-2.234375 0l0 -2.359375l2.234375 0l0 -4.453125l3.03125 -1.828125l0 6.28125l3.0625 0l0 2.359375l-3.0625 0l0 10.515625q0 1.296875 0.15625 1.671875q0.15625 0.375 0.515625 0.59375q0.375 0.21875 1.046875 0.21875q0.515625 0 1.34375 -0.109375zm1.8473663 -6.265625q0 -5.0 2.765625 -7.390625q2.328125 -2.0 5.65625 -2.0q3.703125 0 6.046875 2.4375q2.359375 2.421875 2.359375 6.703125q0 3.46875 -1.046875 5.453125q-1.03125 1.984375 -3.015625 3.09375q-1.984375 1.09375 -4.34375 1.09375q-3.78125 0 -6.109375 -2.421875q-2.3125 -2.421875 -2.3125 -6.96875zm3.125 0q0 3.453125 1.5 5.171875q1.515625 1.71875 3.796875 1.71875q2.265625 0 3.765625 -1.71875q1.515625 -1.734375 1.515625 -5.28125q0 -3.328125 -1.515625 -5.046875q-1.515625 -1.71875 -3.765625 -1.71875q-2.28125 0 -3.796875 1.71875q-1.5 1.703125 -1.5 5.15625zm17.242905 8.984375l0 -17.96875l2.734375 0l0 2.71875q1.0625 -1.90625 1.9375 -2.515625q0.890625 -0.609375 1.96875 -0.609375q1.53125 0 3.125 0.984375l-1.046875 2.828125q-1.125 -0.671875 -2.234375 -0.671875q-1.0 0 -1.796875 0.609375q-0.796875 0.59375 -1.140625 1.65625q-0.5 1.625 -0.5 3.5625l0 9.40625l-3.046875 0zm11.447052 6.921875l-0.34375 -2.859375q1.0 0.265625 1.734375 0.265625q1.015625 0 1.625 -0.34375q0.609375 -0.328125 1.0 -0.9375q0.296875 -0.453125 0.9375 -2.265625q0.078125 -0.25 0.265625 -0.75l-6.8125 -18.0l3.28125 0l3.734375 10.40625q0.734375 1.984375 1.3125 4.15625q0.515625 -2.09375 1.25 -4.09375l3.84375 -10.46875l3.046875 0l-6.84375 18.265625q-1.09375 2.96875 -1.703125 4.078125q-0.8125 1.515625 -1.875 2.21875q-1.046875 0.703125 -2.5 0.703125q-0.875 0 -1.953125 -0.375z" fill-rule="nonzero"/><path fill="#000000" fill-opacity="0.0" d="m389.61942 165.2021l348.03152 -1.291336" fill-rule="evenodd"/><path stroke="#000000" stroke-width="1.0" stroke-linejoin="round" stroke-linecap="butt" d="m389.61942 165.2021l342.0316 -1.2690887" fill-rule="evenodd"/><path fill="#000000" stroke="#000000" stroke-width="1.0" stroke-linecap="butt" d="m731.6571 165.58475l4.5319214 -1.6685638l-4.5441895 -1.6348877z" fill-rule="evenodd"/><path fill="#000000" fill-opacity="0.0" d="m746.4803 156.35695l90.80316 -56.755898" fill-rule="evenodd"/><path stroke="#000000" stroke-width="1.0" stroke-linejoin="round" stroke-linecap="butt" d="m746.4803 156.35695l85.71527 -53.575752" fill-rule="evenodd"/><path fill="#000000" stroke="#000000" stroke-width="1.0" stroke-linecap="butt" d="m833.07104 104.18184l2.9727783 -3.8059464l-4.723694 1.0046692z" fill-rule="evenodd"/><path fill="#000000" fill-opacity="0.0" d="m776.7428 54.220474l152.5669 0l0 42.015747l-152.5669 0z" fill-rule="evenodd"/><path fill="#000000" d="m787.1803 81.14047l0 -13.359375l5.046875 0q1.328125 0 2.03125 0.125q0.96875 0.171875 1.640625 0.640625q0.671875 0.453125 1.078125 1.28125q0.40625 0.828125 0.40625 1.828125q0 1.703125 -1.09375 2.890625q-1.078125 1.171875 -3.921875 1.171875l-3.421875 0l0 5.421875l-1.765625 0zm1.765625 -7.0l3.453125 0q1.71875 0 2.4375 -0.640625q0.71875 -0.640625 0.71875 -1.796875q0 -0.84375 -0.421875 -1.4375q-0.421875 -0.59375 -1.125 -0.78125q-0.4375 -0.125 -1.640625 -0.125l-3.421875 0l0 4.78125zm16.802917 7.0l0 -1.421875q-1.125 1.640625 -3.0625 1.640625q-0.859375 0 -1.609375 -0.328125q-0.734375 -0.328125 -1.09375 -0.828125q-0.359375 -0.5 -0.5 -1.21875q-0.109375 -0.46875 -0.109375 -1.53125l0 -5.984375l1.640625 0l0 5.359375q0 1.28125 0.109375 1.734375q0.15625 0.640625 0.65625 1.015625q0.5 0.375 1.234375 0.375q0.734375 0 1.375 -0.375q0.65625 -0.390625 0.921875 -1.03125q0.265625 -0.65625 0.265625 -1.890625l0 -5.1875l1.640625 0l0 9.671875l-1.46875 0zm4.0319824 0l0 -9.671875l1.46875 0l0 1.46875q0.5625 -1.03125 1.03125 -1.359375q0.484375 -0.328125 1.0625 -0.328125q0.828125 0 1.6875 0.53125l-0.5625 1.515625q-0.609375 -0.359375 -1.203125 -0.359375q-0.546875 0 -0.96875 0.328125q-0.421875 0.328125 -0.609375 0.890625q-0.28125 0.875 -0.28125 1.921875l0 5.0625l-1.625 0zm12.8532715 -3.109375l1.6875 0.203125q-0.40625 1.484375 -1.484375 2.3125q-1.078125 0.8125 -2.765625 0.8125q-2.125 0 -3.375 -1.296875q-1.234375 -1.3125 -1.234375 -3.671875q0 -2.453125 1.25 -3.796875q1.265625 -1.34375 3.265625 -1.34375q1.9375 0 3.15625 1.328125q1.234375 1.3125 1.234375 3.703125q0 0.15625 0 0.4375l-7.21875 0q0.09375 1.59375 0.90625 2.453125q0.8125 0.84375 2.015625 0.84375q0.90625 0 1.546875 -0.46875q0.640625 -0.484375 1.015625 -1.515625zm-5.390625 -2.65625l5.40625 0q-0.109375 -1.21875 -0.625 -1.828125q-0.78125 -0.953125 -2.03125 -0.953125q-1.125 0 -1.90625 0.765625q-0.765625 0.75 -0.84375 2.015625zm9.094482 5.765625l0 -13.359375l1.640625 0l0 13.359375l-1.640625 0zm10.504211 -1.1875q-0.921875 0.765625 -1.765625 1.09375q-0.828125 0.3125 -1.796875 0.3125q-1.59375 0 -2.453125 -0.78125q-0.859375 -0.78125 -0.859375 -1.984375q0 -0.71875 0.328125 -1.296875q0.328125 -0.59375 0.84375 -0.9375q0.53125 -0.359375 1.1875 -0.546875q0.46875 -0.125 1.453125 -0.25q1.984375 -0.234375 2.921875 -0.5625q0.015625 -0.34375 0.015625 -0.421875q0 -1.0 -0.46875 -1.421875q-0.625 -0.546875 -1.875 -0.546875q-1.15625 0 -1.703125 0.40625q-0.546875 0.40625 -0.8125 1.421875l-1.609375 -0.21875q0.21875 -1.015625 0.71875 -1.640625q0.5 -0.640625 1.453125 -0.984375q0.953125 -0.34375 2.1875 -0.34375q1.25 0 2.015625 0.296875q0.78125 0.28125 1.140625 0.734375q0.375 0.4375 0.515625 1.109375q0.078125 0.421875 0.078125 1.515625l0 2.1875q0 2.28125 0.109375 2.890625q0.109375 0.59375 0.40625 1.15625l-1.703125 0q-0.265625 -0.515625 -0.328125 -1.1875zm-0.140625 -3.671875q-0.890625 0.375 -2.671875 0.625q-1.015625 0.140625 -1.4375 0.328125q-0.421875 0.1875 -0.65625 0.53125q-0.21875 0.34375 -0.21875 0.78125q0 0.65625 0.5 1.09375q0.5 0.4375 1.453125 0.4375q0.9375 0 1.671875 -0.40625q0.75 -0.421875 1.09375 -1.140625q0.265625 -0.5625 0.265625 -1.640625l0 -0.609375zm5.7038574 4.859375l-1.515625 0l0 -13.359375l1.640625 0l0 4.765625q1.046875 -1.296875 2.65625 -1.296875q0.890625 0 1.6875 0.359375q0.796875 0.359375 1.3125 1.015625q0.515625 0.640625 0.796875 1.5625q0.296875 0.921875 0.296875 1.96875q0 2.484375 -1.234375 3.84375q-1.21875 1.359375 -2.953125 1.359375q-1.703125 0 -2.6875 -1.4375l0 1.21875zm-0.015625 -4.90625q0 1.734375 0.484375 2.515625q0.765625 1.265625 2.09375 1.265625q1.078125 0 1.859375 -0.9375q0.78125 -0.9375 0.78125 -2.78125q0 -1.890625 -0.75 -2.796875q-0.75 -0.90625 -1.828125 -0.90625q-1.0625 0 -1.859375 0.9375q-0.78125 0.9375 -0.78125 2.703125z" fill-rule="nonzero"/><path fill="#000000" fill-opacity="0.0" d="m419.89502 127.35433l220.66144 0l0 42.01574l-220.66144 0z" fill-rule="evenodd"/><path fill="#000000" d="m430.28564 154.27432l0 -13.359375l2.65625 0l3.15625 9.453125q0.4375 1.328125 0.640625 1.984375q0.234375 -0.734375 0.703125 -2.140625l3.203125 -9.296875l2.375 0l0 13.359375l-1.703125 0l0 -11.171875l-3.875 11.171875l-1.59375 0l-3.859375 -11.375l0 11.375l-1.703125 0zm21.697052 -1.1875q-0.921875 0.765625 -1.765625 1.09375q-0.828125 0.3125 -1.796875 0.3125q-1.59375 0 -2.453125 -0.78125q-0.859375 -0.78125 -0.859375 -1.984375q0 -0.71875 0.328125 -1.296875q0.328125 -0.59375 0.84375 -0.9375q0.53125 -0.359375 1.1875 -0.546875q0.46875 -0.125 1.453125 -0.25q1.984375 -0.234375 2.921875 -0.5625q0.015625 -0.34375 0.015625 -0.421875q0 -1.0 -0.46875 -1.421875q-0.625 -0.546875 -1.875 -0.546875q-1.15625 0 -1.703125 0.40625q-0.546875 0.40625 -0.8125 1.421875l-1.609375 -0.21875q0.21875 -1.015625 0.71875 -1.640625q0.5 -0.640625 1.453125 -0.984375q0.953125 -0.34375 2.1875 -0.34375q1.25 0 2.015625 0.296875q0.78125 0.28125 1.140625 0.734375q0.375 0.4375 0.515625 1.109375q0.078125 0.421875 0.078125 1.515625l0 2.1875q0 2.28125 0.109375 2.890625q0.109375 0.59375 0.40625 1.15625l-1.703125 0q-0.265625 -0.515625 -0.328125 -1.1875zm-0.140625 -3.671875q-0.890625 0.375 -2.671875 0.625q-1.015625 0.140625 -1.4375 0.328125q-0.421875 0.1875 -0.65625 0.53125q-0.21875 0.34375 -0.21875 0.78125q0 0.65625 0.5 1.09375q0.5 0.4375 1.453125 0.4375q0.9375 0 1.671875 -0.40625q0.75 -0.421875 1.09375 -1.140625q0.265625 -0.5625 0.265625 -1.640625l0 -0.609375zm4.203827 -6.609375l0 -1.890625l1.640625 0l0 1.890625l-1.640625 0zm0 11.46875l0 -9.671875l1.640625 0l0 9.671875l-1.640625 0zm4.1448364 0l0 -9.671875l1.46875 0l0 1.375q1.0625 -1.59375 3.078125 -1.59375q0.875 0 1.609375 0.3125q0.734375 0.3125 1.09375 0.828125q0.375 0.5 0.515625 1.203125q0.09375 0.453125 0.09375 1.59375l0 5.953125l-1.640625 0l0 -5.890625q0 -1.0 -0.203125 -1.484375q-0.1875 -0.5 -0.671875 -0.796875q-0.484375 -0.296875 -1.140625 -0.296875q-1.046875 0 -1.8125 0.671875q-0.75 0.65625 -0.75 2.515625l0 5.28125l-1.640625 0z" fill-rule="nonzero"/><path fill="#000000" fill-opacity="0.0" d="m389.61942 165.2021l1.2598572 213.07088" fill-rule="evenodd"/><path stroke="#000000" stroke-width="1.0" stroke-linejoin="round" stroke-linecap="butt" d="m389.61942 165.2021l1.2243652 207.071" fill-rule="evenodd"/><path fill="#000000" stroke="#000000" stroke-width="1.0" stroke-linecap="butt" d="m389.19208 372.28284l1.6785583 4.5282593l1.6248474 -4.5477905z" fill-rule="evenodd"/><path fill="#000000" fill-opacity="0.0" d="m369.4672 427.4777l355.59055 1.2598267" fill-rule="evenodd"/><path stroke="#000000" stroke-width="1.0" stroke-linejoin="round" stroke-linecap="butt" d="m369.4672 427.4777l349.59055 1.2385864" fill-rule="evenodd"/><path fill="#000000" stroke="#000000" stroke-width="1.0" stroke-linecap="butt" d="m719.05194 430.368l4.5438843 -1.6356506l-4.5321655 -1.6678162z" fill-rule="evenodd"/><path fill="#000000" fill-opacity="0.0" d="m407.2861 247.14436l182.83463 0l0 42.01573l-182.83463 0z" fill-rule="evenodd"/><path fill="#000000" d="m417.81735 274.06436l0 -13.359375l9.015625 0l0 1.578125l-7.25 0l0 4.140625l6.265625 0l0 1.578125l-6.265625 0l0 6.0625l-1.765625 0zm10.489716 -4.84375q0 -2.6875 1.484375 -3.96875q1.25 -1.078125 3.046875 -1.078125q2.0 0 3.265625 1.3125q1.265625 1.296875 1.265625 3.609375q0 1.859375 -0.5625 2.9375q-0.5625 1.0625 -1.640625 1.65625q-1.0625 0.59375 -2.328125 0.59375q-2.03125 0 -3.28125 -1.296875q-1.25 -1.3125 -1.25 -3.765625zm1.6875 0q0 1.859375 0.796875 2.796875q0.8125 0.921875 2.046875 0.921875q1.21875 0 2.03125 -0.921875q0.8125 -0.9375 0.8125 -2.84375q0 -1.796875 -0.8125 -2.71875q-0.8125 -0.921875 -2.03125 -0.921875q-1.234375 0 -2.046875 0.921875q-0.796875 0.90625 -0.796875 2.765625zm9.281982 4.84375l0 -9.671875l1.46875 0l0 1.46875q0.5625 -1.03125 1.03125 -1.359375q0.484375 -0.328125 1.0625 -0.328125q0.828125 0 1.6875 0.53125l-0.5625 1.515625q-0.609375 -0.359375 -1.203125 -0.359375q-0.546875 0 -0.96875 0.328125q-0.421875 0.328125 -0.609375 0.890625q-0.28125 0.875 -0.28125 1.921875l0 5.0625l-1.625 0zm6.228302 0l0 -13.359375l1.640625 0l0 7.625l3.890625 -3.9375l2.109375 0l-3.6875 3.59375l4.0625 6.078125l-2.015625 0l-3.203125 -4.953125l-1.15625 1.125l0 3.828125l-1.640625 0zm15.953125 -3.109375l1.6875 0.203125q-0.40625 1.484375 -1.484375 2.3125q-1.078125 0.8125 -2.765625 0.8125q-2.125 0 -3.375 -1.296875q-1.234375 -1.3125 -1.234375 -3.671875q0 -2.453125 1.25 -3.796875q1.265625 -1.34375 3.265625 -1.34375q1.9375 0 3.15625 1.328125q1.234375 1.3125 1.234375 3.703125q0 0.15625 0 0.4375l-7.21875 0q0.09375 1.59375 0.90625 2.453125q0.8125 0.84375 2.015625 0.84375q0.90625 0 1.546875 -0.46875q0.640625 -0.484375 1.015625 -1.515625zm-5.390625 -2.65625l5.40625 0q-0.109375 -1.21875 -0.625 -1.828125q-0.78125 -0.953125 -2.03125 -0.953125q-1.125 0 -1.90625 0.765625q-0.765625 0.75 -0.84375 2.015625zm15.406952 5.765625l0 -1.21875q-0.90625 1.4375 -2.703125 1.4375q-1.15625 0 -2.125 -0.640625q-0.96875 -0.640625 -1.5 -1.78125q-0.53125 -1.140625 -0.53125 -2.625q0 -1.453125 0.484375 -2.625q0.484375 -1.1875 1.4375 -1.8125q0.96875 -0.625 2.171875 -0.625q0.875 0 1.546875 0.375q0.6875 0.359375 1.109375 0.953125l0 -4.796875l1.640625 0l0 13.359375l-1.53125 0zm-5.171875 -4.828125q0 1.859375 0.78125 2.78125q0.78125 0.921875 1.84375 0.921875q1.078125 0 1.828125 -0.875q0.75 -0.890625 0.75 -2.6875q0 -1.984375 -0.765625 -2.90625q-0.765625 -0.9375 -1.890625 -0.9375q-1.078125 0 -1.8125 0.890625q-0.734375 0.890625 -0.734375 2.8125z" fill-rule="nonzero"/><path fill="#000000" fill-opacity="0.0" d="m442.59317 388.3701l204.28348 0l0 42.015747l-204.28348 0z" fill-rule="evenodd"/><path fill="#000000" d="m452.9838 415.29007l0 -13.359375l2.65625 0l3.15625 9.453125q0.4375 1.328125 0.640625 1.984375q0.234375 -0.734375 0.703125 -2.140625l3.203125 -9.296875l2.375 0l0 13.359375l-1.703125 0l0 -11.171875l-3.875 11.171875l-1.59375 0l-3.859375 -11.375l0 11.375l-1.703125 0zm21.697052 -1.1875q-0.921875 0.765625 -1.765625 1.09375q-0.828125 0.3125 -1.796875 0.3125q-1.59375 0 -2.453125 -0.78125q-0.859375 -0.78125 -0.859375 -1.984375q0 -0.71875 0.328125 -1.296875q0.328125 -0.59375 0.84375 -0.9375q0.53125 -0.359375 1.1875 -0.546875q0.46875 -0.125 1.453125 -0.25q1.984375 -0.234375 2.921875 -0.5625q0.015625 -0.34375 0.015625 -0.421875q0 -1.0 -0.46875 -1.421875q-0.625 -0.546875 -1.875 -0.546875q-1.15625 0 -1.703125 0.40625q-0.546875 0.40625 -0.8125 1.421875l-1.609375 -0.21875q0.21875 -1.015625 0.71875 -1.640625q0.5 -0.640625 1.453125 -0.984375q0.953125 -0.34375 2.1875 -0.34375q1.25 0 2.015625 0.296875q0.78125 0.28125 1.140625 0.734375q0.375 0.4375 0.515625 1.109375q0.078125 0.421875 0.078125 1.515625l0 2.1875q0 2.28125 0.109375 2.890625q0.109375 0.59375 0.40625 1.15625l-1.703125 0q-0.265625 -0.515625 -0.328125 -1.1875zm-0.140625 -3.671875q-0.890625 0.375 -2.671875 0.625q-1.015625 0.140625 -1.4375 0.328125q-0.421875 0.1875 -0.65625 0.53125q-0.21875 0.34375 -0.21875 0.78125q0 0.65625 0.5 1.09375q0.5 0.4375 1.453125 0.4375q0.9375 0 1.671875 -0.40625q0.75 -0.421875 1.09375 -1.140625q0.265625 -0.5625 0.265625 -1.640625l0 -0.609375zm4.2038574 -6.609375l0 -1.890625l1.640625 0l0 1.890625l-1.640625 0zm0 11.46875l0 -9.671875l1.640625 0l0 9.671875l-1.640625 0zm4.144806 0l0 -9.671875l1.46875 0l0 1.375q1.0625 -1.59375 3.078125 -1.59375q0.875 0 1.609375 0.3125q0.734375 0.3125 1.09375 0.828125q0.375 0.5 0.515625 1.203125q0.09375 0.453125 0.09375 1.59375l0 5.953125l-1.640625 0l0 -5.890625q0 -1.0 -0.203125 -1.484375q-0.1875 -0.5 -0.671875 -0.796875q-0.484375 -0.296875 -1.140625 -0.296875q-1.046875 0 -1.8125 0.671875q-0.75 0.65625 -0.75 2.515625l0 5.28125l-1.640625 0z" fill-rule="nonzero"/><path fill="#000000" fill-opacity="0.0" d="m722.52234 418.63516l85.73224 -78.17322" fill-rule="evenodd"/><path stroke="#000000" stroke-width="1.0" stroke-linejoin="round" stroke-linecap="butt" d="m722.52234 418.63516l81.298706 -74.13052" fill-rule="evenodd"/><path fill="#000000" stroke="#000000" stroke-width="1.0" stroke-linecap="butt" d="m804.9339 345.72513l2.2404175 -4.2781982l-4.4662476 1.8371887z" fill-rule="evenodd"/><path fill="#000000" fill-opacity="0.0" d="m767.916 297.58267l119.77954 0l0 42.015747l-119.77954 0z" fill-rule="evenodd"/><path fill="#000000" d="m778.3535 324.5027l0 -13.359375l5.046875 0q1.328125 0 2.03125 0.125q0.96875 0.171875 1.640625 0.640625q0.671875 0.453125 1.078125 1.28125q0.40625 0.828125 0.40625 1.828125q0 1.703125 -1.09375 2.890625q-1.078125 1.171875 -3.921875 1.171875l-3.421875 0l0 5.421875l-1.765625 0zm1.765625 -7.0l3.453125 0q1.71875 0 2.4375 -0.640625q0.71875 -0.640625 0.71875 -1.796875q0 -0.84375 -0.421875 -1.4375q-0.421875 -0.59375 -1.125 -0.78125q-0.4375 -0.125 -1.640625 -0.125l-3.421875 0l0 4.78125zm16.802917 7.0l0 -1.421875q-1.125 1.640625 -3.0625 1.640625q-0.859375 0 -1.609375 -0.328125q-0.734375 -0.328125 -1.09375 -0.828125q-0.359375 -0.5 -0.5 -1.21875q-0.109375 -0.46875 -0.109375 -1.53125l0 -5.984375l1.640625 0l0 5.359375q0 1.28125 0.109375 1.734375q0.15625 0.640625 0.65625 1.015625q0.5 0.375 1.234375 0.375q0.734375 0 1.375 -0.375q0.65625 -0.390625 0.921875 -1.03125q0.265625 -0.65625 0.265625 -1.890625l0 -5.1875l1.640625 0l0 9.671875l-1.46875 0zm4.0319824 0l0 -9.671875l1.46875 0l0 1.46875q0.5625 -1.03125 1.03125 -1.359375q0.484375 -0.328125 1.0625 -0.328125q0.828125 0 1.6875 0.53125l-0.5625 1.515625q-0.609375 -0.359375 -1.203125 -0.359375q-0.546875 0 -0.96875 0.328125q-0.421875 0.328125 -0.609375 0.890625q-0.28125 0.875 -0.28125 1.921875l0 5.0625l-1.625 0zm12.8533325 -3.109375l1.6875 0.203125q-0.40625 1.484375 -1.484375 2.3125q-1.078125 0.8125 -2.765625 0.8125q-2.125 0 -3.375 -1.296875q-1.234375 -1.3125 -1.234375 -3.671875q0 -2.453125 1.25 -3.796875q1.265625 -1.34375 3.265625 -1.34375q1.9375 0 3.15625 1.328125q1.234375 1.3125 1.234375 3.703125q0 0.15625 0 0.4375l-7.21875 0q0.09375 1.59375 0.90625 2.453125q0.8125 0.84375 2.015625 0.84375q0.90625 0 1.546875 -0.46875q0.640625 -0.484375 1.015625 -1.515625zm-5.390625 -2.65625l5.40625 0q-0.109375 -1.21875 -0.625 -1.828125q-0.78125 -0.953125 -2.03125 -0.953125q-1.125 0 -1.90625 0.765625q-0.765625 0.75 -0.84375 2.015625zm9.094421 5.765625l0 -13.359375l1.640625 0l0 13.359375l-1.640625 0zm10.504211 -1.1875q-0.921875 0.765625 -1.765625 1.09375q-0.828125 0.3125 -1.796875 0.3125q-1.59375 0 -2.453125 -0.78125q-0.859375 -0.78125 -0.859375 -1.984375q0 -0.71875 0.328125 -1.296875q0.328125 -0.59375 0.84375 -0.9375q0.53125 -0.359375 1.1875 -0.546875q0.46875 -0.125 1.453125 -0.25q1.984375 -0.234375 2.921875 -0.5625q0.015625 -0.34375 0.015625 -0.421875q0 -1.0 -0.46875 -1.421875q-0.625 -0.546875 -1.875 -0.546875q-1.15625 0 -1.703125 0.40625q-0.546875 0.40625 -0.8125 1.421875l-1.609375 -0.21875q0.21875 -1.015625 0.71875 -1.640625q0.5 -0.640625 1.453125 -0.984375q0.953125 -0.34375 2.1875 -0.34375q1.25 0 2.015625 0.296875q0.78125 0.28125 1.140625 0.734375q0.375 0.4375 0.515625 1.109375q0.078125 0.421875 0.078125 1.515625l0 2.1875q0 2.28125 0.109375 2.890625q0.109375 0.59375 0.40625 1.15625l-1.703125 0q-0.265625 -0.515625 -0.328125 -1.1875zm-0.140625 -3.671875q-0.890625 0.375 -2.671875 0.625q-1.015625 0.140625 -1.4375 0.328125q-0.421875 0.1875 -0.65625 0.53125q-0.21875 0.34375 -0.21875 0.78125q0 0.65625 0.5 1.09375q0.5 0.4375 1.453125 0.4375q0.9375 0 1.671875 -0.40625q0.75 -0.421875 1.09375 -1.140625q0.265625 -0.5625 0.265625 -1.640625l0 -0.609375zm5.7038574 4.859375l-1.515625 0l0 -13.359375l1.640625 0l0 4.765625q1.046875 -1.296875 2.65625 -1.296875q0.890625 0 1.6875 0.359375q0.796875 0.359375 1.3125 1.015625q0.515625 0.640625 0.796875 1.5625q0.296875 0.921875 0.296875 1.96875q0 2.484375 -1.234375 3.84375q-1.21875 1.359375 -2.953125 1.359375q-1.703125 0 -2.6875 -1.4375l0 1.21875zm-0.015625 -4.90625q0 1.734375 0.484375 2.515625q0.765625 1.265625 2.09375 1.265625q1.078125 0 1.859375 -0.9375q0.78125 -0.9375 0.78125 -2.78125q0 -1.890625 -0.75 -2.796875q-0.75 -0.90625 -1.828125 -0.90625q-1.0625 0 -1.859375 0.9375q-0.78125 0.9375 -0.78125 2.703125z" fill-rule="nonzero"/><path fill="#000000" fill-opacity="0.0" d="m390.8924 452.67978l0 142.48819" fill-rule="evenodd"/><path stroke="#000000" stroke-width="1.0" stroke-linejoin="round" stroke-linecap="butt" d="m390.8924 452.67978l0 136.48819" fill-rule="evenodd"/><path fill="#000000" stroke="#000000" stroke-width="1.0" stroke-linecap="butt" d="m389.24066 589.16797l1.6517334 4.538086l1.6517334 -4.538086z" fill-rule="evenodd"/><path fill="#000000" fill-opacity="0.0" d="m417.3727 484.2021l152.56693 0l0 42.015747l-152.56693 0z" fill-rule="evenodd"/><path fill="#000000" d="m437.34146 506.4346l1.765625 0.453125q-0.5625 2.171875 -2.0 3.328125q-1.4375 1.140625 -3.53125 1.140625q-2.15625 0 -3.515625 -0.875q-1.34375 -0.890625 -2.0625 -2.546875q-0.703125 -1.671875 -0.703125 -3.59375q0 -2.078125 0.796875 -3.625q0.796875 -1.5625 2.265625 -2.359375q1.484375 -0.8125 3.25 -0.8125q2.0 0 3.359375 1.015625q1.375 1.015625 1.90625 2.875l-1.734375 0.40625q-0.46875 -1.453125 -1.359375 -2.109375q-0.875 -0.671875 -2.203125 -0.671875q-1.546875 0 -2.578125 0.734375q-1.03125 0.734375 -1.453125 1.984375q-0.421875 1.234375 -0.421875 2.5625q0 1.703125 0.5 2.96875q0.5 1.265625 1.546875 1.90625q1.046875 0.625 2.265625 0.625q1.484375 0 2.515625 -0.859375q1.03125 -0.859375 1.390625 -2.546875zm3.691681 4.6875l0 -13.359375l1.640625 0l0 13.359375l-1.640625 0zm3.5823364 -4.84375q0 -2.6875 1.484375 -3.96875q1.25 -1.078125 3.046875 -1.078125q2.0 0 3.265625 1.3125q1.265625 1.296875 1.265625 3.609375q0 1.859375 -0.5625 2.9375q-0.5625 1.0625 -1.640625 1.65625q-1.0625 0.59375 -2.328125 0.59375q-2.03125 0 -3.28125 -1.296875q-1.25 -1.3125 -1.25 -3.765625zm1.6875 0q0 1.859375 0.796875 2.796875q0.8125 0.921875 2.046875 0.921875q1.21875 0 2.03125 -0.921875q0.8125 -0.9375 0.8125 -2.84375q0 -1.796875 -0.8125 -2.71875q-0.8125 -0.921875 -2.03125 -0.921875q-1.234375 0 -2.046875 0.921875q-0.796875 0.90625 -0.796875 2.765625zm9.297577 4.84375l0 -9.671875l1.46875 0l0 1.375q1.0625 -1.59375 3.078125 -1.59375q0.875 0 1.609375 0.3125q0.734375 0.3125 1.09375 0.828125q0.375 0.5 0.515625 1.203125q0.09375 0.453125 0.09375 1.59375l0 5.953125l-1.640625 0l0 -5.890625q0 -1.0 -0.203125 -1.484375q-0.1875 -0.5 -0.671875 -0.796875q-0.484375 -0.296875 -1.140625 -0.296875q-1.046875 0 -1.8125 0.671875q-0.75 0.65625 -0.75 2.515625l0 5.28125l-1.640625 0zm17.000732 -3.109375l1.6875 0.203125q-0.40625 1.484375 -1.484375 2.3125q-1.078125 0.8125 -2.765625 0.8125q-2.125 0 -3.375 -1.296875q-1.234375 -1.3125 -1.234375 -3.671875q0 -2.453125 1.25 -3.796875q1.265625 -1.34375 3.265625 -1.34375q1.9375 0 3.15625 1.328125q1.234375 1.3125 1.234375 3.703125q0 0.15625 0 0.4375l-7.21875 0q0.09375 1.59375 0.90625 2.453125q0.8125 0.84375 2.015625 0.84375q0.90625 0 1.546875 -0.46875q0.640625 -0.484375 1.015625 -1.515625zm-5.390625 -2.65625l5.40625 0q-0.109375 -1.21875 -0.625 -1.828125q-0.78125 -0.953125 -2.03125 -0.953125q-1.125 0 -1.90625 0.765625q-0.765625 0.75 -0.84375 2.015625zm15.406952 5.765625l0 -1.21875q-0.90625 1.4375 -2.703125 1.4375q-1.15625 0 -2.125 -0.640625q-0.96875 -0.640625 -1.5 -1.78125q-0.53125 -1.140625 -0.53125 -2.625q0 -1.453125 0.484375 -2.625q0.484375 -1.1875 1.4375 -1.8125q0.96875 -0.625 2.171875 -0.625q0.875 0 1.546875 0.375q0.6875 0.359375 1.109375 0.953125l0 -4.796875l1.640625 0l0 13.359375l-1.53125 0zm-5.171875 -4.828125q0 1.859375 0.78125 2.78125q0.78125 0.921875 1.84375 0.921875q1.078125 0 1.828125 -0.875q0.75 -0.890625 0.75 -2.6875q0 -1.984375 -0.765625 -2.90625q-0.765625 -0.9375 -1.890625 -0.9375q-1.078125 0 -1.8125 0.890625q-0.734375 0.890625 -0.734375 2.8125z" fill-rule="nonzero"/><path fill="#000000" fill-opacity="0.0" d="m306.40945 610.2966l204.28345 0l0 42.015747l-204.28345 0z" fill-rule="evenodd"/><path fill="#000000" d="m316.76883 637.2166l0 -13.359375l1.78125 0l0 11.78125l6.5625 0l0 1.578125l-8.34375 0zm9.641327 -4.84375q0 -2.6875 1.484375 -3.96875q1.25 -1.078125 3.046875 -1.078125q2.0 0 3.265625 1.3125q1.265625 1.296875 1.265625 3.609375q0 1.859375 -0.5625 2.9375q-0.5625 1.0625 -1.640625 1.65625q-1.0625 0.59375 -2.328125 0.59375q-2.03125 0 -3.28125 -1.296875q-1.25 -1.3125 -1.25 -3.765625zm1.6875 0q0 1.859375 0.796875 2.796875q0.8125 0.921875 2.046875 0.921875q1.21875 0 2.03125 -0.921875q0.8125 -0.9375 0.8125 -2.84375q0 -1.796875 -0.8125 -2.71875q-0.8125 -0.921875 -2.03125 -0.921875q-1.234375 0 -2.046875 0.921875q-0.796875 0.90625 -0.796875 2.765625zm15.610107 1.296875l1.609375 0.21875q-0.265625 1.65625 -1.359375 2.609375q-1.078125 0.9375 -2.671875 0.9375q-1.984375 0 -3.1875 -1.296875q-1.203125 -1.296875 -1.203125 -3.71875q0 -1.578125 0.515625 -2.75q0.515625 -1.171875 1.578125 -1.75q1.0625 -0.59375 2.3125 -0.59375q1.578125 0 2.578125 0.796875q1.0 0.796875 1.28125 2.265625l-1.59375 0.234375q-0.234375 -0.96875 -0.8125 -1.453125q-0.578125 -0.5 -1.390625 -0.5q-1.234375 0 -2.015625 0.890625q-0.78125 0.890625 -0.78125 2.8125q0 1.953125 0.75 2.84375q0.75 0.875 1.953125 0.875q0.96875 0 1.609375 -0.59375q0.65625 -0.59375 0.828125 -1.828125zm9.328125 2.359375q-0.921875 0.765625 -1.765625 1.09375q-0.828125 0.3125 -1.796875 0.3125q-1.59375 0 -2.453125 -0.78125q-0.859375 -0.78125 -0.859375 -1.984375q0 -0.71875 0.328125 -1.296875q0.328125 -0.59375 0.84375 -0.9375q0.53125 -0.359375 1.1875 -0.546875q0.46875 -0.125 1.453125 -0.25q1.984375 -0.234375 2.921875 -0.5625q0.015625 -0.34375 0.015625 -0.421875q0 -1.0 -0.46875 -1.421875q-0.625 -0.546875 -1.875 -0.546875q-1.15625 0 -1.703125 0.40625q-0.546875 0.40625 -0.8125 1.421875l-1.609375 -0.21875q0.21875 -1.015625 0.71875 -1.640625q0.5 -0.640625 1.453125 -0.984375q0.953125 -0.34375 2.1875 -0.34375q1.25 0 2.015625 0.296875q0.78125 0.28125 1.140625 0.734375q0.375 0.4375 0.515625 1.109375q0.078125 0.421875 0.078125 1.515625l0 2.1875q0 2.28125 0.109375 2.890625q0.109375 0.59375 0.40625 1.15625l-1.703125 0q-0.265625 -0.515625 -0.328125 -1.1875zm-0.140625 -3.671875q-0.890625 0.375 -2.671875 0.625q-1.015625 0.140625 -1.4375 0.328125q-0.421875 0.1875 -0.65625 0.53125q-0.21875 0.34375 -0.21875 0.78125q0 0.65625 0.5 1.09375q0.5 0.4375 1.453125 0.4375q0.9375 0 1.671875 -0.40625q0.75 -0.421875 1.09375 -1.140625q0.265625 -0.5625 0.265625 -1.640625l0 -0.609375zm4.156952 4.859375l0 -13.359375l1.640625 0l0 13.359375l-1.640625 0zm19.109375 -4.6875l1.765625 0.453125q-0.5625 2.171875 -2.0 3.328125q-1.4375 1.140625 -3.53125 1.140625q-2.15625 0 -3.515625 -0.875q-1.34375 -0.890625 -2.0625 -2.546875q-0.703125 -1.671875 -0.703125 -3.59375q0 -2.078125 0.796875 -3.625q0.796875 -1.5625 2.265625 -2.359375q1.484375 -0.8125 3.25 -0.8125q2.0 0 3.359375 1.015625q1.375 1.015625 1.90625 2.875l-1.734375 0.40625q-0.46875 -1.453125 -1.359375 -2.109375q-0.875 -0.671875 -2.203125 -0.671875q-1.546875 0 -2.578125 0.734375q-1.03125 0.734375 -1.453125 1.984375q-0.421875 1.234375 -0.421875 2.5625q0 1.703125 0.5 2.96875q0.5 1.265625 1.546875 1.90625q1.046875 0.625 2.265625 0.625q1.484375 0 2.515625 -0.859375q1.03125 -0.859375 1.390625 -2.546875zm3.1292114 -0.15625q0 -2.6875 1.484375 -3.96875q1.25 -1.078125 3.046875 -1.078125q2.0 0 3.265625 1.3125q1.265625 1.296875 1.265625 3.609375q0 1.859375 -0.5625 2.9375q-0.5625 1.0625 -1.640625 1.65625q-1.0625 0.59375 -2.328125 0.59375q-2.03125 0 -3.28125 -1.296875q-1.25 -1.3125 -1.25 -3.765625zm1.6875 0q0 1.859375 0.796875 2.796875q0.8125 0.921875 2.046875 0.921875q1.21875 0 2.03125 -0.921875q0.8125 -0.9375 0.8125 -2.84375q0 -1.796875 -0.8125 -2.71875q-0.8125 -0.921875 -2.03125 -0.921875q-1.234375 0 -2.046875 0.921875q-0.796875 0.90625 -0.796875 2.765625zm9.297577 4.84375l0 -9.671875l1.46875 0l0 1.359375q0.453125 -0.71875 1.203125 -1.140625q0.765625 -0.4375 1.71875 -0.4375q1.078125 0 1.765625 0.453125q0.6875 0.4375 0.96875 1.234375q1.15625 -1.6875 2.984375 -1.6875q1.453125 0 2.21875 0.796875q0.78125 0.796875 0.78125 2.453125l0 6.640625l-1.640625 0l0 -6.09375q0 -0.984375 -0.15625 -1.40625q-0.15625 -0.4375 -0.578125 -0.703125q-0.421875 -0.265625 -0.984375 -0.265625q-1.015625 0 -1.6875 0.6875q-0.671875 0.671875 -0.671875 2.15625l0 5.625l-1.640625 0l0 -6.28125q0 -1.09375 -0.40625 -1.640625q-0.40625 -0.546875 -1.3125 -0.546875q-0.6875 0 -1.28125 0.359375q-0.59375 0.359375 -0.859375 1.0625q-0.25 0.703125 -0.25 2.03125l0 5.015625l-1.640625 0zm15.540802 3.703125l0 -13.375l1.484375 0l0 1.25q0.53125 -0.734375 1.1875 -1.09375q0.671875 -0.375 1.625 -0.375q1.234375 0 2.171875 0.640625q0.953125 0.625 1.4375 1.796875q0.484375 1.15625 0.484375 2.546875q0 1.484375 -0.53125 2.671875q-0.53125 1.1875 -1.546875 1.828125q-1.015625 0.625 -2.140625 0.625q-0.8125 0 -1.46875 -0.34375q-0.65625 -0.34375 -1.0625 -0.875l0 4.703125l-1.640625 0zm1.484375 -8.484375q0 1.859375 0.75 2.765625q0.765625 0.890625 1.828125 0.890625q1.09375 0 1.875 -0.921875q0.78125 -0.9375 0.78125 -2.875q0 -1.84375 -0.765625 -2.765625q-0.75 -0.921875 -1.8125 -0.921875q-1.046875 0 -1.859375 0.984375q-0.796875 0.96875 -0.796875 2.84375zm15.219482 4.78125l0 -1.421875q-1.125 1.640625 -3.0625 1.640625q-0.859375 0 -1.609375 -0.328125q-0.734375 -0.328125 -1.09375 -0.828125q-0.359375 -0.5 -0.5 -1.21875q-0.109375 -0.46875 -0.109375 -1.53125l0 -5.984375l1.640625 0l0 5.359375q0 1.28125 0.109375 1.734375q0.15625 0.640625 0.65625 1.015625q0.5 0.375 1.234375 0.375q0.734375 0 1.375 -0.375q0.65625 -0.390625 0.921875 -1.03125q0.265625 -0.65625 0.265625 -1.890625l0 -5.1875l1.640625 0l0 9.671875l-1.46875 0zm7.625702 -1.46875l0.234375 1.453125q-0.6875 0.140625 -1.234375 0.140625q-0.890625 0 -1.390625 -0.28125q-0.484375 -0.28125 -0.6875 -0.734375q-0.203125 -0.46875 -0.203125 -1.9375l0 -5.578125l-1.203125 0l0 -1.265625l1.203125 0l0 -2.390625l1.625 -0.984375l0 3.375l1.65625 0l0 1.265625l-1.65625 0l0 5.671875q0 0.6875 0.078125 0.890625q0.09375 0.203125 0.28125 0.328125q0.203125 0.109375 0.578125 0.109375q0.265625 0 0.71875 -0.0625zm8.230194 -1.640625l1.6875 0.203125q-0.40625 1.484375 -1.484375 2.3125q-1.078125 0.8125 -2.765625 0.8125q-2.125 0 -3.375 -1.296875q-1.234375 -1.3125 -1.234375 -3.671875q0 -2.453125 1.25 -3.796875q1.265625 -1.34375 3.265625 -1.34375q1.9375 0 3.15625 1.328125q1.234375 1.3125 1.234375 3.703125q0 0.15625 0 0.4375l-7.21875 0q0.09375 1.59375 0.90625 2.453125q0.8125 0.84375 2.015625 0.84375q0.90625 0 1.546875 -0.46875q0.640625 -0.484375 1.015625 -1.515625zm-5.390625 -2.65625l5.40625 0q-0.109375 -1.21875 -0.625 -1.828125q-0.78125 -0.953125 -2.03125 -0.953125q-1.125 0 -1.90625 0.765625q-0.765625 0.75 -0.84375 2.015625zm9.125702 5.765625l0 -9.671875l1.46875 0l0 1.46875q0.5625 -1.03125 1.03125 -1.359375q0.484375 -0.328125 1.0625 -0.328125q0.828125 0 1.6875 0.53125l-0.5625 1.515625q-0.609375 -0.359375 -1.203125 -0.359375q-0.546875 0 -0.96875 0.328125q-0.421875 0.328125 -0.609375 0.890625q-0.28125 0.875 -0.28125 1.921875l0 5.0625l-1.625 0z" fill-rule="nonzero"/></g></svg>